<?xml version="1.0" standalone="no"?>
<!DOCTYPE svg PUBLIC "-//W3C//DTD SVG 1.1//EN" "http://www.w3.org/Graphics/SVG/1.1/DTD/svg11.dtd" >
<svg xmlns="http://www.w3.org/2000/svg">
<metadata>Generated by IcoMoon</metadata>
<defs>
<font id="icomoon-arrows-carousel-32x32" horiz-adv-x="1024">
<font-face units-per-em="1024" ascent="960" descent="-64" />
<missing-glyph horiz-adv-x="1024" />
<glyph unicode="&#x20;" horiz-adv-x="512" d="" />
<glyph unicode="&#xe900;" glyph-name="ar-021-l" d="M186.080 427.616l483.104-483.072c5.568-5.728 13.056-8.544 20.384-8.544s14.816 3.008 20.384 8.576c11.36 11.36 11.36 29.632 0 40.992l-462.496 462.464 462.496 462.464c11.36 11.36 11.36 29.6 0 40.992-11.328 11.392-29.632 11.36-40.992 0l-483.072-483.072c-11.168-11.168-11.168-29.6 0.192-40.8z" />
<glyph unicode="&#xe901;" glyph-name="ar-021-r" d="M838.112 468.416l-483.072 483.040c-11.36 11.36-29.632 11.36-40.992 0s-11.36-29.6 0-40.992l462.528-462.464-462.528-462.432c-11.36-11.36-11.36-29.632 0-40.992 5.6-5.568 13.088-8.576 20.384-8.576 7.328 0 14.816 2.816 20.416 8.576l483.104 483.136c11.328 11.104 11.328 29.536 0.16 40.704z" />
<glyph unicode="&#xe902;" glyph-name="ar-022-l" d="M976.32 448.32h-928.64c-8.64 0-15.68 7.040-15.68 15.68s7.040 15.68 15.68 15.68h928.64c8.672 0 15.68-7.040 15.68-15.68s-7.040-15.68-15.68-15.68zM409.056 87.008c-4 0-8.032 1.504-11.136 4.576l-361.344 361.376c-2.912 2.976-4.576 6.944-4.576 11.104s1.664 8.16 4.576 11.104l361.44 361.248c6.112 6.112 16.064 6.112 22.176 0s6.112-16.064 0-22.176l-350.304-350.176 350.304-350.304c6.112-6.112 6.112-16.064 0-22.176-3.104-3.072-7.136-4.576-11.136-4.576z" />
<glyph unicode="&#xe903;" glyph-name="ar-022-r" d="M32 464c0 8.672 7.040 15.68 15.68 15.68h928.64c8.672 0 15.68-7.040 15.68-15.68s-7.040-15.68-15.68-15.68h-928.64c-8.64 0-15.68 7.040-15.68 15.68zM603.808 91.584c-6.112 6.112-6.112 16.064 0 22.176l350.304 350.304-350.304 350.144c-6.112 6.112-6.112 16.064 0 22.176s16.064 6.112 22.176 0l361.44-361.184c2.912-2.976 4.576-6.944 4.576-11.136s-1.664-8.16-4.576-11.104l-361.376-361.408c-3.104-3.072-7.136-4.576-11.136-4.576s-8 1.536-11.104 4.608z" />
<glyph unicode="&#xe904;" glyph-name="ar-023-l" d="M179.808 448l512 512 24.384-24.384-487.616-487.616 487.616-487.616-24.384-24.384z" />
<glyph unicode="&#xe905;" glyph-name="ar-023-r" d="M332.192-64l-24.384 24.384 487.616 487.616-487.616 487.616 24.384 24.384 512-512z" />
<glyph unicode="&#xe906;" glyph-name="ar-001-l" d="M794.688 309.568c12.256-12.224 12.256-32.096 0-44.416-6.176-6.048-14.112-9.184-22.24-9.184-7.936 0-16 3.136-22.112 9.184l-151.36 151.424h-312.224v-129.184c0-11.584-6.4-22.24-16.576-27.648-10.208-5.472-22.592-4.832-32.224 1.6l-224 160.544c-8.704 5.824-13.952 15.616-13.952 26.112 0 10.464 5.248 20.224 13.984 26.080l224 160.608c9.632 6.432 22.016 7.008 32.224 1.568 10.176-5.504 16.576-16.096 16.576-27.68v-129.216h312.192l151.36 151.392c12.192 12.256 32.064 12.256 44.384 0 12.256-12.256 12.256-32.064 0-44.32l-138.464-138.432 138.432-138.432zM224 550.016l-136.096-102.016 136.096-102.016v204.032zM992.512 479.36h-143.808l107.136 107.072c12.192 12.224 12.192 32.064 0 44.32-12.256 12.256-32.192 12.256-44.448 0l-160.576-160.576c-12.256-12.256-12.256-32.128 0-44.384l160.576-160.672c6.112-6.048 14.112-9.184 22.176-9.184s16.064 3.136 22.24 9.184c12.192 12.32 12.192 32.192 0 44.416l-107.136 107.040h143.808c17.408 0.032 31.52 14.112 31.52 31.424 0 17.28-14.112 31.36-31.488 31.36z" />
<glyph unicode="&#xe907;" glyph-name="ar-001-r" d="M367.744 448l-138.432 138.432c-12.256 12.224-12.256 32.064 0 44.32 12.32 12.256 32.192 12.256 44.384 0l151.36-151.392h312.192v129.216c0 11.584 6.368 22.176 16.576 27.68 10.208 5.44 22.592 4.832 32.256-1.568l223.968-160.608c8.704-5.824 13.952-15.584 13.952-26.080 0-10.528-5.248-20.288-13.984-26.144l-223.968-160.544c-9.664-6.432-22.016-7.072-32.256-1.6-10.176 5.408-16.576 16.064-16.576 27.648v129.184h-312.192l-151.36-151.424c-6.112-6.048-14.176-9.184-22.112-9.184-8.128 0-16.064 3.136-22.24 9.184-12.256 12.32-12.256 32.192 0 44.416l138.432 138.464zM800 345.984l136.096 102.016-136.096 102.016v-204.032zM0 448c0-17.344 14.112-31.424 31.488-31.424h143.808l-107.136-107.040c-12.192-12.224-12.192-32.096 0-44.416 6.176-6.048 14.176-9.184 22.24-9.184s16.064 3.136 22.176 9.184l160.576 160.672c12.256 12.256 12.256 32.096 0 44.384l-160.512 160.576c-12.256 12.256-32.192 12.256-44.448 0-12.192-12.256-12.192-32.064 0-44.32l107.136-107.072h-143.84c-17.376 0-31.488-14.080-31.488-31.36z" />
<glyph unicode="&#xe908;" glyph-name="ar-002-l" d="M0 448c0-7.52 3.744-17.12 9.152-22.56l220.736-223.968c12.544-12.608 32.768-12.608 45.248 0 12.544 12.672 12.544 33.088 0 45.728l-166.4 168.8h552.544l116.096-119.136c12.544-12.608 32.768-12.608 45.248 0 12.544 12.672 12.544 33.088 0 45.76l-71.040 73.376h101.696l116.096-119.136c12.512-12.608 32.768-12.608 45.216 0 12.544 12.672 12.544 33.088 0 45.76l-102.24 105.088 102.272 105.12c12.512 12.608 12.512 33.088 0 45.728-12.512 12.608-32.768 12.608-45.248 0l-115.488-118.56h-101.696l70.432 72.8c12.512 12.608 12.512 33.088 0 45.728-12.512 12.608-32.736 12.64-45.248 0l-115.488-118.528h-553.696l167.008 169.376c12.512 12.608 12.512 33.088 0 45.728-12.512 12.608-32.736 12.608-45.248 0l-220.768-224c-6.112-6.112-9.184-14.56-9.184-23.104z" />
<glyph unicode="&#xe909;" glyph-name="ar-002-r" d="M1014.848 471.136l-220.768 224c-12.512 12.608-32.736 12.608-45.248 0-12.512-12.64-12.512-33.12 0-45.728l166.976-169.408h-553.696l-115.488 118.528c-12.512 12.64-32.736 12.608-45.248 0-12.512-12.64-12.512-33.12 0-45.728l70.432-72.8h-101.696l-115.488 118.56c-12.48 12.608-32.736 12.608-45.248 0-12.512-12.64-12.512-33.12 0-45.728l102.272-105.12-102.24-105.088c-12.544-12.672-12.544-33.088 0-45.76 12.448-12.608 32.704-12.608 45.216 0l116.096 119.136h101.696l-71.040-73.376c-12.544-12.672-12.544-33.088 0-45.76 12.48-12.608 32.704-12.608 45.248 0l116.096 119.136h552.544l-166.4-168.8c-12.544-12.64-12.544-33.056 0-45.728 12.48-12.608 32.704-12.608 45.248 0l220.736 223.968c5.408 5.44 9.152 15.040 9.152 22.56 0 8.544-3.072 16.992-9.152 23.136z" />
<glyph unicode="&#xe90a;" glyph-name="ar-003-l" d="M9.152 425.376l220.832-224c12.512-12.64 32.768-12.64 45.28 0s12.512 33.056 0 45.76l-166.496 168.864h456.672l116.064-151.168c5.408-5.44 14.752-9.504 22.688-9.504h288.064c27.936 0 42.336 35.296 22.624 55.2l-102.304 137.152 102.304 137.184c19.264 19.424 6.112 54.624-25.568 54.624h-282.176c-9.376 0-18.56-1.792-25.632-8.896l-115.552-150.592h-457.728l167.072 169.44c12.512 12.608 12.512 33.088 0 45.728s-32.768 12.64-45.28 0l-220.864-224.032c-6.048-6.144-9.152-14.56-9.152-23.104 0-7.584 3.744-17.216 9.152-22.656zM717.568 575.424h197.696l-61.184-95.456h-197.728l61.216 95.456zM853.536 415.936l62.336-96.64h-197.76l-62.336 96.64h197.76z" />
<glyph unicode="&#xe90b;" glyph-name="ar-003-r" d="M1024 448.032c0 8.544-3.136 16.96-9.152 23.136l-220.832 224.032c-12.512 12.64-32.736 12.64-45.28 0s-12.544-33.12 0-45.728l167.040-169.472h-457.728l-115.552 150.592c-7.072 7.104-16.256 8.896-25.632 8.896h-282.176c-31.68 0-44.8-35.168-25.568-54.624l102.304-137.184-102.304-137.152c-19.712-19.904-5.312-55.2 22.624-55.2h288.064c7.936 0 17.28 4.064 22.688 9.504l116.064 151.168h456.672l-166.496-168.864c-12.512-12.672-12.512-33.12 0-45.76s32.736-12.64 45.248 0l220.832 224c5.44 5.44 9.184 15.072 9.184 22.656zM367.648 479.968h-197.696l-61.184 95.456h197.696l61.184-95.456zM368.224 415.936l-62.336-96.64h-197.76l62.336 96.64h197.76z" />
<glyph unicode="&#xe90c;" glyph-name="ar-004-l" d="M512 844.096c-218.304 0-396.128-177.824-396.128-396.096 0-218.304 177.824-396.128 396.128-396.128 218.272 0 396.096 177.824 396.096 396.128 0 218.272-177.824 396.096-396.096 396.096zM618.368 263.84c12.672-12.704 12.672-33.344 0-46.016-6.368-6.368-14.304-9.568-23.040-9.568-7.936 0-16.672 3.2-23.040 9.568l-209.568 209.568c-6.304 6.336-9.504 14.272-9.504 23.008s3.2 16.672 9.504 23.040l209.568 209.568c12.704 12.672 33.376 12.672 46.048 0 12.672-12.704 12.672-33.344 0-46.016l-186.56-186.56 186.592-186.592z" />
<glyph unicode="&#xe90d;" glyph-name="ar-004-r" d="M115.872 448c0-218.304 177.824-396.128 396.096-396.128 218.304 0 396.128 177.824 396.128 396.128 0 218.272-177.824 396.096-396.128 396.096-218.272 0-396.096-177.824-396.096-396.096zM592.16 450.368l-186.56 186.56c-12.672 12.672-12.672 33.312 0 46.016 12.672 12.672 33.344 12.672 46.048 0l209.568-209.568c6.304-6.336 9.504-14.272 9.504-23.040 0-8.704-3.2-16.672-9.504-23.008l-209.568-209.568c-6.368-6.368-15.104-9.568-23.040-9.568-8.704 0-16.672 3.2-23.040 9.568-12.672 12.672-12.672 33.312 0 46.016l186.592 186.592z" />
<glyph unicode="&#xe90e;" glyph-name="ar-005-l" d="M512 909.184c-254.016 0-461.184-206.368-461.184-461.184s207.168-461.184 461.184-461.184 461.184 207.168 461.184 461.184-207.168 461.184-461.184 461.184zM512 51.872c-218.304 0-396.128 177.824-396.128 396.128 0 218.272 177.824 396.096 396.128 396.096 218.272 0 396.096-177.824 396.096-396.096 0-218.304-177.824-396.128-396.096-396.128zM618.368 636.928l-186.56-186.56 186.56-186.528c12.672-12.704 12.672-33.344 0-46.016-6.368-6.368-14.304-9.568-23.040-9.568-7.936 0-16.672 3.2-23.040 9.568l-209.568 209.568c-6.304 6.336-9.504 14.272-9.504 23.008s3.2 16.672 9.504 23.040l209.568 209.568c12.704 12.672 33.376 12.672 46.048 0 12.736-12.768 12.736-33.376 0.032-46.080z" />
<glyph unicode="&#xe90f;" glyph-name="ar-005-r" d="M50.816 448c0-254.016 207.2-461.184 461.184-461.184s461.184 206.368 461.184 461.184-207.168 461.184-461.184 461.184-461.184-207.168-461.184-461.184zM115.904 448c0 218.272 177.824 396.096 396.096 396.096 218.304 0 396.128-177.824 396.128-396.096 0-218.304-177.824-396.128-396.128-396.128-218.272 0-396.096 177.824-396.096 396.128zM405.632 682.976c12.672 12.672 33.344 12.672 46.048 0l209.568-209.568c6.304-6.336 9.504-14.272 9.504-23.040 0-8.704-3.2-16.672-9.504-23.008l-209.568-209.568c-6.368-6.368-15.104-9.568-23.040-9.568-8.704 0-16.672 3.2-23.040 9.568-12.672 12.672-12.672 33.312 0 46.016l186.56 186.528-186.56 186.56c-12.672 12.736-12.672 33.344 0.032 46.080z" />
<glyph unicode="&#xe910;" glyph-name="ar-006-l" d="M512 844.096c-218.304 0-396.128-177.824-396.128-396.096 0-218.304 177.824-396.128 396.128-396.128 218.272 0 396.096 177.824 396.096 396.128 0 218.272-177.824 396.096-396.096 396.096zM704.544 416.512h-309.536l122.88-122.88c12.32-12.288 12.32-32 0-44.256-6.112-6.176-14.048-9.248-22.24-9.248s-16.16 3.072-22.272 9.248l-176.128 176.64c-12.288 12.288-12.288 32 0 44.288l176.352 176.352c12.288 12.32 32 12.32 44.288 0 12.32-12.256 12.32-32 0-44.288l-122.88-122.88h309.536c17.344 0 31.456-14.080 31.456-31.488 0-17.376-14.112-31.488-31.456-31.488z" />
<glyph unicode="&#xe911;" glyph-name="ar-006-r" d="M115.872 448c0-218.304 177.824-396.128 396.096-396.128 218.304 0 396.128 177.824 396.128 396.128 0 218.272-177.824 396.096-396.128 396.096-218.272 0-396.096-177.824-396.096-396.096zM287.968 448c0 17.408 14.112 31.488 31.456 31.488h309.536l-122.88 122.88c-12.32 12.288-12.32 32.032 0 44.288 12.288 12.32 32 12.32 44.288 0l176.384-176.352c12.288-12.288 12.288-32 0-44.288l-176.128-176.64c-6.112-6.176-14.080-9.248-22.272-9.248s-16.128 3.072-22.24 9.248c-12.32 12.256-12.32 31.968 0 44.256l122.88 122.88h-309.536c-17.376 0-31.488 14.112-31.488 31.488z" />
<glyph unicode="&#xe912;" glyph-name="ar-007-l" d="M512 909.184c-254.016 0-461.184-206.368-461.184-461.184s207.168-461.184 461.184-461.184 461.184 207.168 461.184 461.184-207.168 461.184-461.184 461.184zM512 51.872c-218.304 0-396.128 177.824-396.128 396.128 0 218.272 177.824 396.096 396.128 396.096 218.272 0 396.096-177.824 396.096-396.096 0-218.304-177.824-396.128-396.096-396.128zM736 448c0-17.376-14.112-31.488-31.456-31.488h-309.536l122.88-122.88c12.32-12.288 12.32-32 0-44.256-6.112-6.176-14.048-9.248-22.24-9.248s-16.16 3.072-22.272 9.248l-176.128 176.64c-12.288 12.288-12.288 32 0 44.288l176.352 176.352c12.288 12.32 32 12.32 44.288 0 12.32-12.256 12.32-32 0-44.288l-122.88-122.88h309.536c17.344 0 31.456-14.080 31.456-31.488z" />
<glyph unicode="&#xe913;" glyph-name="ar-007-r" d="M50.816 448c0-254.016 207.2-461.184 461.184-461.184s461.184 206.368 461.184 461.184-207.168 461.184-461.184 461.184-461.184-207.168-461.184-461.184zM115.904 448c0 218.272 177.824 396.096 396.096 396.096 218.304 0 396.128-177.824 396.128-396.096 0-218.304-177.824-396.128-396.128-396.128-218.272 0-396.096 177.824-396.096 396.128zM319.456 479.488h309.536l-122.88 122.88c-12.32 12.288-12.32 32.032 0 44.288 12.288 12.32 32 12.32 44.288 0l176.384-176.352c12.288-12.288 12.288-32 0-44.288l-176.128-176.64c-6.112-6.176-14.080-9.248-22.272-9.248s-16.128 3.072-22.24 9.248c-12.32 12.256-12.32 31.968 0 44.256l122.88 122.88h-309.536c-17.376 0-31.488 14.112-31.488 31.488 0 17.408 14.112 31.488 31.456 31.488z" />
<glyph unicode="&#xe914;" glyph-name="ar-008-l" d="M201.888 431.968l-16 16.096 511.968 511.936 140.288-140.288-371.648-371.712 371.616-371.648-140.256-140.352-495.968 495.968zM402.816 448l371.648 371.712-76.608 76.608-446.816-446.752 0.032-3.136 446.784-446.752 76.64 76.672-371.68 371.648z" />
<glyph unicode="&#xe915;" glyph-name="ar-008-r" d="M326.144-64l-140.288 140.352 371.648 371.648-371.616 371.712 140.256 140.288 511.968-511.936-16-16.096-495.968-495.968zM249.536 76.352l76.64-76.672 446.784 446.752 0.032 3.136-446.848 446.752-76.608-76.608 371.648-371.712-371.648-371.648z" />
<glyph unicode="&#xe916;" glyph-name="ar-009-l" d="M137.312 423.712l382.048-478.016c6.464-6.496 14.944-9.632 23.36-9.568 0.256 0 0.48-0.128 0.704-0.128h319.808c17.664 0 32 14.304 32 31.936 0 0.256-0.128 0.448-0.128 0.736 0.064 8.448-3.136 16.864-9.568 23.36l-359.712 455.744 360.672 456.672c12.832 12.8 12.832 33.632 0 46.432-7.584 7.616-17.952 10.144-27.808 8.736h-310.592c-9.888 1.408-20.224-1.12-27.808-8.736l-382.944-478.88c-6.656-6.656-9.696-15.392-9.44-24.16-0.256-8.704 2.752-17.44 9.408-24.128zM557.888 895.648h226.944l-327.648-423.648c-6.688-6.656-9.728-15.392-9.472-24.16-0.256-8.672 2.784-17.44 9.472-24.128l327.712-423.776h-227.136l-351.776 447.84 351.904 447.872z" />
<glyph unicode="&#xe917;" glyph-name="ar-009-r" d="M896.128 447.84c0.256 8.736-2.816 17.504-9.44 24.16l-382.976 478.88c-7.584 7.616-17.952 10.144-27.808 8.736h-310.592c-9.888 1.408-20.224-1.12-27.808-8.736-12.832-12.8-12.832-33.632 0-46.432l360.672-456.672-359.744-455.712c-6.432-6.496-9.632-14.944-9.568-23.36 0-0.32-0.128-0.512-0.128-0.736 0-17.632 14.336-31.936 32-31.936h319.808c0.256 0 0.48 0.128 0.704 0.128 8.448-0.064 16.896 3.072 23.36 9.568l382.016 478.016c6.752 6.656 9.76 15.392 9.504 24.096zM817.984 447.776l-351.776-447.84h-227.104l327.712 423.776c6.688 6.688 9.728 15.424 9.472 24.128 0.256 8.736-2.784 17.504-9.472 24.16l-327.616 423.648h226.944l351.84-447.872z" />
<glyph unicode="&#xe918;" glyph-name="ar-010-l" d="M559.36 58.432c27.872-28 27.872-73.44 0-101.44-27.808-28-72.96-28-100.8 0l-437.696 440.288c-13.92 14.016-20.864 32.384-20.864 50.72s6.944 36.672 20.832 50.688l437.76 440.288c27.84 28.032 72.992 28.032 100.8 0 27.872-27.968 27.872-73.376 0-101.408l-387.296-389.568 387.264-389.568zM615.808 448l387.328 389.6c27.808 28 27.808 73.408 0 101.408s-72.928 28-100.8 0l-437.728-440.32c-13.92-14.016-20.864-32.352-20.864-50.688s6.976-36.704 20.864-50.72l437.728-440.288c27.872-28 72.992-28 100.8 0s27.808 73.44 0 101.44l-387.328 389.568z" />
<glyph unicode="&#xe919;" glyph-name="ar-010-r" d="M851.872 448l-387.232 389.568c-27.872 28.032-27.872 73.44 0 101.408 27.808 28.032 72.96 28.032 100.8 0l437.696-440.288c13.888-14.016 20.864-32.352 20.864-50.688s-6.944-36.704-20.864-50.72l-437.696-440.288c-27.872-28-73.024-28-100.8 0-27.872 28-27.872 73.44 0 101.44l387.232 389.568zM20.864 58.432c-27.808-28-27.808-73.44 0-101.44s72.928-28 100.8 0l437.728 440.288c13.92 14.016 20.832 32.384 20.832 50.72s-6.944 36.672-20.832 50.688l-437.696 440.32c-27.872 28-72.992 28-100.8 0s-27.808-73.408 0-101.408l387.296-389.6-387.328-389.568z" />
<glyph unicode="&#xe91a;" glyph-name="ar-011-l" d="M713.952-22.368c9.504-9.536 9.504-24.96 0-34.496-4.8-4.768-11.008-7.136-17.28-7.136s-12.48 2.368-17.248 7.136l-475.968 476.032c-7.712 7.68-11.968 17.92-11.968 28.832 0 10.88 4.256 21.12 11.968 28.8l475.968 476.064c9.536 9.504 24.96 9.504 34.496 0 9.504-9.504 9.504-24.96 0-34.496l-470.368-470.368 470.4-470.368zM465.312 448l360.064 360.032c9.504 9.504 9.504 24.96 0 34.464-9.536 9.536-24.96 9.536-34.496 0l-377.28-377.248c-4.576-4.608-7.136-10.816-7.136-17.248s2.56-12.672 7.136-17.248l377.28-377.28c4.768-4.736 11.008-7.168 17.248-7.168s12.48 2.4 17.248 7.168c9.504 9.536 9.504 24.96 0 34.464l-360.064 360.064z" />
<glyph unicode="&#xe91b;" glyph-name="ar-011-r" d="M780.448 448l-470.4 470.368c-9.504 9.536-9.504 24.96 0 34.496 9.536 9.504 24.96 9.504 34.496 0l476-476.064c7.712-7.68 11.968-17.952 11.968-28.8 0-10.912-4.256-21.152-11.968-28.832l-475.968-476.032c-4.8-4.768-11.008-7.136-17.248-7.136s-12.48 2.368-17.248 7.136c-9.504 9.536-9.504 24.96 0 34.496l470.368 470.368zM198.624 87.936c-9.504-9.504-9.504-24.928 0-34.464 4.768-4.736 11.008-7.168 17.248-7.168s12.48 2.4 17.248 7.168l377.28 377.28c4.576 4.608 7.136 10.816 7.136 17.248s-2.56 12.672-7.136 17.248l-377.28 377.248c-9.536 9.536-24.96 9.536-34.496 0-9.504-9.504-9.504-24.96 0-34.464l360.064-360.032-360.064-360.064z" />
<glyph unicode="&#xe91c;" glyph-name="ar-012-l" d="M974.368 549.568c-14.24 16.448-32.736 24.672-55.52 24.672h-462.688l192.576 192.576c16.672 16.672 24.96 36.608 24.96 59.808s-8.32 43.168-24.96 59.808l-49.28 48.64c-16.672 16.608-36.384 24.928-59.168 24.928-23.264 0-43.2-8.32-59.808-24.96l-427.872-427.232c-16.192-17.088-24.32-37.024-24.32-59.776 0-23.264 8.096-42.976 24.32-59.168l427.872-428.544c17.056-16.192 36.992-24.32 59.808-24.32 23.232 0 42.944 8.128 59.136 24.352l49.312 49.952c16.672 15.776 24.96 35.488 24.96 59.168s-8.32 43.36-24.96 59.168l-192.576 193.216h462.688c22.784 0 41.28 8.224 55.52 24.672s21.344 36.256 21.344 59.456v84.16c0 23.136-7.072 42.976-21.344 59.424z" />
<glyph unicode="&#xe91d;" glyph-name="ar-012-r" d="M28.288 490.080v-84.16c0-23.232 7.104-43.040 21.344-59.456s32.736-24.672 55.52-24.672h462.688l-192.576-193.216c-16.672-15.776-24.96-35.488-24.96-59.168s8.32-43.36 24.96-59.168l49.312-49.952c16.192-16.16 35.936-24.288 59.136-24.288 22.816 0 42.752 8.128 59.808 24.352l427.872 428.544c16.224 16.192 24.32 35.904 24.32 59.168 0 22.752-8.096 42.688-24.32 59.776l-427.872 427.2c-16.608 16.64-36.544 24.96-59.808 24.96-22.784 0-42.496-8.32-59.168-24.96l-49.28-48.64c-16.672-16.672-24.96-36.608-24.96-59.808s8.32-43.168 24.96-59.808l192.576-192.576h-462.688c-22.784 0-41.28-8.224-55.52-24.672s-21.344-36.256-21.344-59.456z" />
<glyph unicode="&#xe91e;" glyph-name="ar-013-l" d="M0 448l448-448 89.6 89.6-294.4 294.4h780.8v128h-780.8l294.4 294.4-89.6 89.6z" />
<glyph unicode="&#xe91f;" glyph-name="ar-013-r" d="M576 896l-89.6-89.6 294.4-294.4h-780.8v-128h780.8l-294.4-294.4 89.6-89.6 448 448z" />
<glyph unicode="&#xe920;" glyph-name="ar-014-l" d="M345.152 758.368c13.536 12.832 34.848 12.832 48.416 0 13.056-12.384 13.056-33.056 0-45.376l-245.344-232.64h809.408c18.848 0 34.336-14.208 34.336-32.096s-15.488-32.608-34.336-32.608h-809.408l245.344-232.192c13.056-12.8 13.056-33.504 0-45.888-13.568-12.8-34.848-12.8-48.416 0l-303.328 287.712c-13.12 12.416-13.12 33.024 0 45.376l303.328 287.712z" />
<glyph unicode="&#xe921;" glyph-name="ar-014-r" d="M982.176 470.688c13.088-12.384 13.088-32.992 0-45.376l-303.328-287.712c-13.536-12.8-34.848-12.8-48.416 0-13.056 12.384-13.056 33.056 0 45.888l245.312 232.192h-809.408c-18.848-0.032-34.336 14.688-34.336 32.576s15.488 32.096 34.336 32.096h809.408l-245.312 232.64c-13.056 12.352-13.056 32.992 0 45.376 13.568 12.832 34.88 12.832 48.416 0l303.328-287.68z" />
<glyph unicode="&#xe922;" glyph-name="ar-015-l" d="M1024 480.256h-900.512l73.952 73.952-45.632 45.6-151.808-151.808 151.808-151.808 45.632 45.6-73.952 73.952h900.512z" />
<glyph unicode="&#xe923;" glyph-name="ar-015-r" d="M0 415.744h900.512l-73.952-73.952 45.632-45.6 151.808 151.808-151.808 151.808-45.632-45.6 73.952-73.952h-900.512z" />
<glyph unicode="&#xe924;" glyph-name="ar-017-l" d="M776.64 81.248l-366.752 366.752 366.752 366.752-145.28 145.248-512-512 512-512z" />
<glyph unicode="&#xe925;" glyph-name="ar-017-r" d="M392.64-64l512 512-512 512-145.28-145.248 366.752-366.752-366.752-366.752z" />
<glyph unicode="&#xe926;" glyph-name="ar-018-l" d="M156.128 448c0 18.336 7.008 36.672 20.992 50.688l440.288 440.32c28 28 73.44 28 101.44 0s28-73.408 0-101.408l-389.568-389.6 389.6-389.6c28-28 28-73.376 0-101.376-28-28.096-73.44-28.096-101.44 0l-440.288 440.256c-13.984 14.048-21.024 32.384-21.024 50.72z" />
<glyph unicode="&#xe927;" glyph-name="ar-018-r" d="M846.88 397.28l-440.32-440.256c-28-28.096-73.44-28.096-101.44 0-28 28-28 73.376 0 101.376l389.632 389.632-389.632 389.568c-28 28-28 73.408 0 101.408s73.44 28 101.44 0l440.32-440.288c14.016-14.016 20.992-32.352 20.992-50.688s-7.008-36.704-20.992-50.752z" />
<glyph unicode="&#xe928;" glyph-name="ar-019-l" d="M670.368 914.4l-60.736 45.6-384-512 384-512 60.736 45.6-349.76 466.4z" />
<glyph unicode="&#xe929;" glyph-name="ar-019-r" d="M703.36 448l-349.728-466.4 60.736-45.6 384 512-384 512-60.736-45.6z" />
<glyph unicode="&#xe92a;" glyph-name="ar-020-l" d="M359.712 448c0-68.16-55.424-123.552-123.552-123.552-68.16 0-123.584 55.392-123.584 123.552s55.424 123.584 123.584 123.584c68.128 0 123.552-55.424 123.552-123.584zM448 377.376c-68.16 0-123.584-55.424-123.584-123.552 0-68.192 55.424-123.616 123.584-123.616s123.552 55.424 123.552 123.616c0 68.128-55.392 123.552-123.552 123.552zM659.872 183.2c-68.16 0-123.584-55.392-123.584-123.552 0-68.192 55.424-123.616 123.584-123.616 68.128 0 123.552 55.424 123.552 123.552 0 68.16-55.424 123.616-123.552 123.616zM448 518.624c68.16 0 123.552 55.424 123.552 123.552 0 68.192-55.392 123.616-123.552 123.616s-123.584-55.424-123.584-123.616c0-68.128 55.424-123.552 123.584-123.552zM659.872 712.8c68.128 0 123.552 55.424 123.552 123.584s-55.424 123.616-123.552 123.616c-68.16 0-123.584-55.424-123.584-123.584s55.424-123.616 123.584-123.616z" />
<glyph unicode="&#xe92b;" glyph-name="ar-020-r" d="M787.84 571.584c68.16 0 123.584-55.424 123.584-123.584s-55.424-123.552-123.584-123.552c-68.128 0-123.552 55.392-123.552 123.552s55.424 123.584 123.552 123.584zM452.416 253.824c0-68.192 55.424-123.616 123.584-123.616s123.552 55.424 123.552 123.616c0 68.128-55.392 123.552-123.552 123.552s-123.584-55.424-123.584-123.552zM240.576 59.552c0-68.128 55.424-123.552 123.552-123.552 68.16 0 123.584 55.424 123.584 123.552 0 68.192-55.424 123.616-123.584 123.616-68.128 0.032-123.552-55.424-123.552-123.616zM699.552 642.176c0 68.192-55.392 123.616-123.552 123.616s-123.584-55.424-123.584-123.616c0-68.128 55.424-123.552 123.584-123.552s123.552 55.424 123.552 123.552zM487.712 836.416c0 68.16-55.424 123.584-123.584 123.584-68.128 0-123.552-55.424-123.552-123.584s55.424-123.616 123.552-123.616c68.16 0 123.584 55.456 123.584 123.616z" />
</font>
</defs>
</svg>
